<mxfile host="app.diagrams.net" modified="2024-06-26T13:42:50.976Z" agent="Mozilla/5.0 (Macintosh; Intel Mac OS X 10_15_7) AppleWebKit/537.36 (KHTML, like Gecko) Chrome/126.0.0.0 Safari/537.36" version="24.6.3" etag="xySb4Ltq6OrK48lF8tGc" type="github">
  <diagram name="PÃ¡gina-1" id="MjAbBPjGkNKpHRcoB_0z">
    <mxGraphModel>
      <root>
        <mxCell id="0" />
        <mxCell id="1" parent="0" />
      </root>
    </mxGraphModel>
  </diagram>
</mxfile>
